# Blender v2.79 (sub 0) OBJ File: ''
# www.blender.org
o Circle
v 0.000000 0.000000 -1.000000
v -0.195090 0.000000 -0.980785
v -0.382683 0.000000 -0.923880
v -0.555570 0.000000 -0.831470
v -0.707107 0.000000 -0.707107
v -0.831470 0.000000 -0.555570
v -0.923880 0.000000 -0.382683
v -0.980785 0.000000 -0.195090
v -1.000000 0.000000 -0.000000
v -0.980785 0.000000 0.195090
v -0.923880 0.000000 0.382683
v -0.831470 0.000000 0.555570
v -0.707107 0.000000 0.707107
v -0.555570 0.000000 0.831470
v -0.382683 0.000000 0.923880
v -0.195090 0.000000 0.980785
v 0.000000 0.000000 1.000000
v 0.195091 0.000000 0.980785
v 0.382684 0.000000 0.923879
v 0.555571 0.000000 0.831469
v 0.707107 0.000000 0.707106
v 0.831470 0.000000 0.555570
v 0.923880 0.000000 0.382683
v 0.980785 0.000000 0.195089
v 1.000000 0.000000 -0.000001
v 0.980785 0.000000 -0.195091
v 0.923879 0.000000 -0.382684
v 0.831469 0.000000 -0.555571
v 0.707106 0.000000 -0.707108
v 0.555569 0.000000 -0.831470
v 0.382682 0.000000 -0.923880
v 0.195089 0.000000 -0.980786
v -0.000000 0.000000 -0.821411
v -0.160249 0.000000 -0.805628
v -0.314341 0.000000 -0.758885
v -0.456352 0.000000 -0.682979
v -0.580825 0.000000 -0.580825
v -0.682979 0.000000 -0.456352
v -0.758885 0.000000 -0.314341
v -0.805628 0.000000 -0.160249
v -0.821411 0.000000 -0.000000
v -0.805628 0.000000 0.160249
v -0.758885 0.000000 0.314340
v -0.682979 0.000000 0.456352
v -0.580825 0.000000 0.580825
v -0.456352 0.000000 0.682978
v -0.314340 0.000000 0.758885
v -0.160249 0.000000 0.805628
v 0.000000 0.000000 0.821411
v 0.160250 0.000000 0.805628
v 0.314341 0.000000 0.758885
v 0.456352 0.000000 0.682978
v 0.580826 0.000000 0.580825
v 0.682979 0.000000 0.456351
v 0.758885 0.000000 0.314340
v 0.805628 0.000000 0.160249
v 0.821411 0.000000 -0.000001
v 0.805628 0.000000 -0.160250
v 0.758885 0.000000 -0.314341
v 0.682978 0.000000 -0.456353
v 0.580825 0.000000 -0.580826
v 0.456351 0.000000 -0.682979
v 0.314339 0.000000 -0.758886
v 0.160248 0.000000 -0.805628
vn 0.0000 1.0000 0.0000
s off
f 16//1 48//1 47//1 15//1
f 3//1 35//1 34//1 2//1
f 30//1 62//1 61//1 29//1
f 17//1 49//1 48//1 16//1
f 4//1 36//1 35//1 3//1
f 31//1 63//1 62//1 30//1
f 18//1 50//1 49//1 17//1
f 5//1 37//1 36//1 4//1
f 32//1 64//1 63//1 31//1
f 19//1 51//1 50//1 18//1
f 6//1 38//1 37//1 5//1
f 1//1 33//1 64//1 32//1
f 20//1 52//1 51//1 19//1
f 7//1 39//1 38//1 6//1
f 21//1 53//1 52//1 20//1
f 8//1 40//1 39//1 7//1
f 22//1 54//1 53//1 21//1
f 9//1 41//1 40//1 8//1
f 23//1 55//1 54//1 22//1
f 10//1 42//1 41//1 9//1
f 24//1 56//1 55//1 23//1
f 11//1 43//1 42//1 10//1
f 25//1 57//1 56//1 24//1
f 12//1 44//1 43//1 11//1
f 26//1 58//1 57//1 25//1
f 13//1 45//1 44//1 12//1
f 27//1 59//1 58//1 26//1
f 14//1 46//1 45//1 13//1
f 28//1 60//1 59//1 27//1
f 15//1 47//1 46//1 14//1
f 2//1 34//1 33//1 1//1
f 29//1 61//1 60//1 28//1
